<?xml version="1.0" ?><!DOCTYPE svg  PUBLIC '-//W3C//DTD SVG 1.1//EN'  'http://www.w3.org/Graphics/SVG/1.1/DTD/svg11.dtd'><svg enable-background="new 0 0 128 128" id="Слой_1" version="1.1" viewBox="0 0 128 128" xml:space="preserve" xmlns="http://www.w3.org/2000/svg" xmlns:xlink="http://www.w3.org/1999/xlink"><g><g><path d="M124,72.8V55.2c0-1.8-1.4-3.2-3.2-3.2H111c-1.4,0-2.6-0.9-3-2.2c-0.8-2.4-1.7-4.7-2.8-6.9    c-0.6-1.2-0.4-2.7,0.6-3.7l7-7c1.2-1.2,1.2-3.3,0-4.5l-12.4-12.4c-1.2-1.2-3.3-1.2-4.5,0l-7,7c-1,1-2.5,1.2-3.7,0.6    c-2.2-1.1-4.5-2.1-6.9-2.8c-1.3-0.4-2.2-1.7-2.2-3V7.2C76,5.4,74.6,4,72.8,4H55.2C53.4,4,52,5.4,52,7.2V17c0,1.4-0.9,2.6-2.2,3    c-2.4,0.8-4.7,1.7-6.9,2.8c-1.2,0.6-2.7,0.4-3.7-0.6l-7-7c-1.2-1.2-3.3-1.2-4.5,0L15.4,27.8c-1.2,1.2-1.2,3.3,0,4.5l7,7    c1,1,1.2,2.5,0.6,3.7c-1.1,2.2-2.1,4.5-2.8,6.9c-0.4,1.3-1.7,2.2-3,2.2H7.2C5.4,52,4,53.4,4,55.2v17.6C4,74.6,5.4,76,7.2,76H17    c1.4,0,2.6,0.9,3,2.2c0.8,2.4,1.7,4.7,2.8,6.9c0.6,1.2,0.4,2.7-0.6,3.7l-7,7c-1.2,1.2-1.2,3.3,0,4.5l12.4,12.4    c1.2,1.2,3.3,1.2,4.5,0l7-7c1-1,2.5-1.2,3.7-0.6c2.2,1.1,4.5,2.1,6.9,2.8c1.3,0.4,2.2,1.7,2.2,3v9.8c0,1.8,1.4,3.2,3.2,3.2h17.6    c1.8,0,3.2-1.4,3.2-3.2V111c0-1.4,0.9-2.6,2.2-3c2.4-0.8,4.7-1.7,6.9-2.8c1.2-0.6,2.7-0.4,3.7,0.6l7,7c1.2,1.2,3.3,1.2,4.5,0    l12.4-12.4c1.2-1.2,1.2-3.3,0-4.5l-7-7c-1-1-1.2-2.5-0.6-3.7c1.1-2.2,2.1-4.5,2.8-6.9c0.4-1.3,1.7-2.2,3-2.2h9.8    C122.6,76,124,74.6,124,72.8z M64,92.2c-15.5,0-28.2-12.6-28.2-28.2c0-15.5,12.6-28.2,28.2-28.2S92.2,48.5,92.2,64    C92.2,79.5,79.5,92.2,64,92.2z" fill="#938993"/></g><g><path d="M72.8,125H55.2c-2.3,0-4.2-1.9-4.2-4.2V111c0-1-0.6-1.8-1.5-2.1c-2.4-0.8-4.8-1.8-7-2.9    c-0.8-0.4-1.9-0.2-2.5,0.4l-7,7c-0.8,0.8-1.8,1.2-3,1.2c-1.1,0-2.2-0.4-3-1.2l-12.4-12.4c-0.8-0.8-1.2-1.8-1.2-3    c0-1.1,0.4-2.2,1.2-3l7-7c0.7-0.7,0.8-1.7,0.4-2.5c-1.2-2.3-2.1-4.6-2.9-7C18.8,77.6,18,77,17,77H7.2C4.9,77,3,75.1,3,72.8V55.2    C3,52.9,4.9,51,7.2,51H17c1,0,1.8-0.6,2.1-1.5c0.8-2.4,1.8-4.8,2.9-7c0.4-0.8,0.3-1.8-0.4-2.5l-7-7c-0.8-0.8-1.2-1.8-1.2-3    s0.4-2.2,1.2-3l12.4-12.4c0.8-0.8,1.8-1.2,3-1.2c1.1,0,2.2,0.4,3,1.2l7,7c0.7,0.7,1.7,0.8,2.5,0.4c2.3-1.2,4.6-2.1,7-2.9    C50.4,18.8,51,18,51,17V7.2C51,4.9,52.9,3,55.2,3h17.6C75.1,3,77,4.9,77,7.2V17c0,1,0.6,1.8,1.5,2.1c2.4,0.8,4.8,1.8,7,2.9    c0.8,0.4,1.9,0.2,2.5-0.4l7-7c0.8-0.8,1.8-1.2,3-1.2c1.1,0,2.2,0.4,3,1.2l12.4,12.4c0.8,0.8,1.2,1.8,1.2,3s-0.4,2.2-1.2,3l-7,7    c-0.7,0.7-0.8,1.7-0.4,2.5c1.2,2.3,2.1,4.6,2.9,7c0.3,0.9,1.1,1.5,2.1,1.5h9.8c2.3,0,4.2,1.9,4.2,4.2v17.6c0,2.3-1.9,4.2-4.2,4.2    H111c-1,0-1.8,0.6-2.1,1.5c-0.8,2.4-1.8,4.8-2.9,7c-0.4,0.8-0.3,1.8,0.4,2.5l7,7c0.8,0.8,1.2,1.8,1.2,3c0,1.1-0.4,2.2-1.2,3    l-12.4,12.4c-0.8,0.8-1.8,1.2-3,1.2c-1.1,0-2.2-0.4-3-1.2l-7-7c-0.7-0.7-1.7-0.8-2.5-0.4c-2.3,1.2-4.6,2.1-7,2.9    c-0.9,0.3-1.5,1.1-1.5,2.1v9.8C77,123.1,75.1,125,72.8,125z M41.6,103.7c0.6,0,1.3,0.2,1.9,0.5c2.2,1.1,4.4,2,6.7,2.8    c1.7,0.6,2.9,2.2,2.9,4v9.8c0,1.2,1,2.2,2.2,2.2h17.6c1.2,0,2.2-1,2.2-2.2V111c0-1.8,1.2-3.4,2.9-4c2.3-0.7,4.6-1.7,6.7-2.8    c1.6-0.8,3.6-0.5,4.8,0.8l7,7c0.8,0.8,2.3,0.8,3.1,0l12.4-12.4c0.4-0.4,0.6-1,0.6-1.6c0-0.6-0.2-1.1-0.6-1.6l-7-7    c-1.3-1.3-1.6-3.2-0.8-4.8c1.1-2.2,2-4.4,2.8-6.7c0.6-1.7,2.2-2.9,4-2.9h9.8c1.2,0,2.2-1,2.2-2.2V55.2c0-1.2-1-2.2-2.2-2.2H111    c-1.8,0-3.4-1.2-4-2.9c-0.7-2.3-1.7-4.6-2.8-6.7c-0.8-1.6-0.5-3.5,0.8-4.8l7-7c0.9-0.9,0.9-2.3,0-3.1L99.5,16.1    c-0.8-0.8-2.3-0.8-3.1,0l-7,7c-1.2,1.2-3.3,1.6-4.8,0.8c-2.2-1.1-4.4-2-6.7-2.8c-1.7-0.6-2.9-2.2-2.9-4V7.2C75,6,74,5,72.8,5H55.2    C54,5,53,6,53,7.2V17c0,1.8-1.2,3.4-2.9,4c-2.3,0.7-4.6,1.7-6.7,2.8c-1.6,0.8-3.6,0.5-4.8-0.8l-7-7c-0.8-0.8-2.3-0.8-3.1,0    L16.1,28.5c-0.9,0.9-0.9,2.3,0,3.1l7,7c1.3,1.3,1.6,3.2,0.8,4.8c-1.1,2.2-2,4.4-2.8,6.7c-0.6,1.7-2.2,2.9-4,2.9H7.2    C6,53,5,54,5,55.2v17.6C5,74,6,75,7.2,75H17c1.8,0,3.4,1.2,4,2.9c0.7,2.3,1.7,4.6,2.8,6.7c0.8,1.6,0.5,3.5-0.8,4.8l-7,7    c-0.4,0.4-0.6,1-0.6,1.6c0,0.6,0.2,1.1,0.6,1.6l12.4,12.4c0.8,0.8,2.3,0.8,3.1,0l7-7C39.4,104.2,40.5,103.7,41.6,103.7z M64,93.2    c-16.1,0-29.2-13.1-29.2-29.2S47.9,34.8,64,34.8S93.2,47.9,93.2,64S80.1,93.2,64,93.2z M64,36.8C49,36.8,36.8,49,36.8,64    S49,91.2,64,91.2S91.2,79,91.2,64S79,36.8,64,36.8z" fill="#62355C"/></g></g></svg>